<?xml version="1.0" encoding="UTF-8" standalone="no"?>
<!DOCTYPE svg PUBLIC "-//W3C//DTD SVG 1.1//EN" "http://www.w3.org/Graphics/SVG/1.1/DTD/svg11.dtd">
<svg xmlns="http://www.w3.org/2000/svg" version="1.1" viewBox="0.00 0.00 660.00 660.00">

<path fill="#458ed6" d="   M 145.73 452.63   Q 146.00 453.64 146.30 454.67   Q 146.59 455.63 146.72 456.60   Q 151.41 491.17 162.82 521.02   Q 167.77 533.97 175.92 547.59   Q 177.49 550.22 182.88 555.96   Q 166.44 556.29 150.51 554.47   Q 124.87 551.55 100.65 542.23   Q 91.05 538.54 82.28 533.76   Q 37.64 509.49 17.08 462.67   Q 4.80 434.69 2.38 402.02   Q 1.68 392.49 1.69 382.00   Q 1.81 238.63 1.65 94.73   Q 1.63 81.09 2.93 74.84   Q 6.76 56.42 22.24 46.21   Q 31.37 40.18 40.76 38.90   Q 53.32 37.19 64.37 41.53   Q 71.06 44.15 77.58 49.10   C 89.54 58.19 94.79 72.81 95.12 87.84   Q 95.39 99.67 95.23 112.01   C 94.92 135.48 94.96 158.92 95.00 182.50   Q 95.00 184.40 94.99 186.25   Q 94.77 231.91 94.75 283.00   Q 94.75 284.67 94.74 286.50   Q 94.38 348.64 94.60 393.25   C 94.65 405.08 95.49 417.36 98.91 427.92   Q 100.98 434.29 105.12 440.34   Q 108.85 445.79 115.01 449.21   Q 125.33 454.92 137.38 454.19   C 140.00 454.04 142.81 452.99 145.73 452.63   Z"/>
<path fill="#f05011" d="   M 342.31 40.78   Q 358.41 42.11 370.25 44.53   Q 382.37 47.00 397.84 52.39   C 402.80 54.12 407.48 56.29 412.24 58.45   Q 427.21 65.24 441.92 76.40   Q 445.17 78.87 448.21 81.53   Q 454.44 87.00 460.04 92.90   Q 466.34 99.54 470.80 105.33   Q 483.85 122.25 492.75 141.60   Q 493.16 142.48 493.98 143.23   Q 494.88 144.05 495.41 144.78   Q 500.26 158.19 503.28 172.00   Q 507.65 191.92 509.49 209.23   Q 510.18 215.65 510.70 222.24   C 511.48 231.99 511.48 241.90 511.86 251.80   L 510.63 317.29   Q 508.09 314.43 506.33 311.10   Q 502.91 304.61 502.89 304.57   Q 494.05 291.02 479.07 285.70   Q 470.08 282.52 460.49 283.73   C 451.00 284.94 441.60 290.04 434.38 296.70   Q 430.92 299.91 428.03 304.60   Q 427.38 305.66 426.58 306.49   A 1.67 1.60 75.5 0 0 426.15 307.26   Q 425.84 308.40 424.91 309.02   Q 424.50 309.30 424.56 309.80   Q 424.68 310.73 423.84 311.29   Q 423.39 311.59 423.22 312.10   Q 422.69 313.71 421.47 314.75   Q 421.56 290.39 421.20 266.13   Q 420.93 248.13 420.85 243.14   Q 420.57 225.14 418.50 209.73   Q 416.26 193.08 409.77 178.60   Q 405.11 168.19 399.15 160.75   Q 384.99 143.08 363.90 136.08   Q 333.29 125.92 300.34 132.64   Q 290.17 134.71 281.33 139.13   Q 271.04 144.28 263.02 152.23   C 261.31 153.94 259.94 155.99 258.26 157.76   Q 256.79 159.30 255.56 161.12   Q 248.85 171.04 245.14 180.57   Q 237.55 200.06 235.69 223.97   C 235.34 228.52 234.96 233.15 234.93 237.68   Q 234.64 283.11 234.03 312.25   Q 233.93 317.19 234.02 318.79   Q 233.27 318.81 233.21 318.70   Q 228.38 309.45 221.09 300.00   C 214.43 291.37 206.74 285.69 195.82 283.31   C 179.93 279.83 163.21 288.64 154.23 301.22   Q 152.25 303.98 150.28 307.15   C 148.89 309.37 146.99 310.91 145.98 313.45   A 0.77 0.73 -87.5 0 1 145.54 313.88   Q 145.41 313.93 145.28 313.96   Q 145.02 313.58 145.02 313.00   Q 144.78 270.90 145.24 240.50   Q 145.40 230.10 146.23 215.71   Q 146.52 210.60 147.12 205.81   C 148.01 198.60 148.81 191.48 150.28 184.33   Q 151.42 178.79 152.78 172.81   Q 156.98 154.37 163.84 138.18   Q 173.50 115.38 188.81 97.47   C 202.50 81.46 218.57 69.34 237.54 59.71   C 240.51 58.20 243.60 57.20 246.54 55.70   Q 248.29 54.81 250.14 54.11   Q 282.11 41.98 316.54 40.61   Q 329.32 39.96 342.31 40.78   Z"/>

<path fill="#ffa11b" d="   M 652.89 275.01   Q 656.18 299.35 656.24 321.50   Q 656.38 375.86 656.27 535.75   Q 656.26 540.74 654.62 547.85   C 648.29 572.15 628.23 588.43 602.47 585.52   Q 582.68 583.28 570.87 565.60   Q 567.06 559.90 565.16 553.80   Q 562.72 546.00 562.72 536.54   Q 562.78 431.07 562.71 328.66   Q 562.71 321.00 562.49 312.08   C 562.18 299.60 562.51 286.51 558.28 275.03   Q 549.58 251.44 523.97 250.52   Q 519.17 250.34 511.86 251.80   C 511.48 241.90 511.48 231.99 510.70 222.24   Q 510.18 215.65 509.49 209.23   Q 507.65 191.92 503.28 172.00   Q 500.26 158.19 495.41 144.78   Q 496.58 144.41 496.99 144.44   Q 525.81 146.01 551.48 154.64   Q 556.69 156.40 562.21 158.47   Q 566.71 160.15 571.26 162.25   C 574.66 163.82 578.06 165.25 581.29 167.08   Q 595.81 175.32 605.09 183.30   Q 612.55 189.70 619.57 197.69   Q 625.58 204.54 631.07 213.37   Q 635.90 221.15 639.64 229.73   Q 649.07 251.38 652.89 275.01   Z"/>

<path fill="#9dbf53" d="   M 234.02 318.79   Q 233.62 372.76 233.77 426.75   Q 233.80 439.35 234.46 446.89   Q 236.03 465.03 242.10 481.99   Q 248.87 500.91 263.08 514.65   Q 269.95 521.30 279.44 526.45   Q 281.78 527.72 284.14 528.54   C 286.42 529.34 288.36 530.60 290.75 531.24   Q 295.75 532.60 300.67 533.98   C 305.51 535.34 310.51 535.80 315.39 536.54   C 319.51 537.16 323.76 537.16 327.97 537.30   C 334.03 537.51 340.19 536.96 346.23 536.29   C 366.13 534.08 386.02 525.50 398.70 509.49   C 415.93 487.76 420.85 458.45 421.10 431.00   Q 421.65 372.83 421.47 314.75   Q 422.69 313.71 423.22 312.10   Q 423.39 311.59 423.84 311.29   Q 424.68 310.73 424.56 309.80   Q 424.50 309.30 424.91 309.02   Q 425.84 308.40 426.15 307.26   A 1.67 1.60 75.5 0 1 426.58 306.49   Q 427.38 305.66 428.03 304.60   Q 430.92 299.91 434.38 296.70   C 441.60 290.04 451.00 284.94 460.49 283.73   Q 470.08 282.52 479.07 285.70   Q 494.05 291.02 502.89 304.57   Q 502.91 304.61 506.33 311.10   Q 508.09 314.43 510.63 317.29   Q 510.90 331.37 510.71 346.26   C 510.38 372.25 510.35 398.25 510.18 424.24   Q 509.98 453.66 505.18 482.46   Q 502.19 500.38 496.16 517.08   Q 487.86 540.07 473.17 559.91   Q 471.30 562.44 469.53 564.44   C 467.78 566.41 466.42 568.49 464.61 570.38   Q 451.29 584.38 438.32 593.06   Q 426.50 600.96 417.70 604.96   Q 414.98 606.20 412.21 607.52   C 408.37 609.35 404.44 610.58 400.52 612.09   Q 397.25 613.35 394.37 614.21   Q 375.95 619.73 356.65 621.75   Q 336.72 623.61 316.52 622.87   C 288.96 621.98 261.70 615.68 237.25 602.79   Q 212.26 589.62 191.77 566.74   Q 189.82 564.57 182.88 555.96   Q 177.49 550.22 175.92 547.59   Q 167.77 533.97 162.82 521.02   Q 151.41 491.17 146.72 456.60   Q 146.59 455.63 146.30 454.67   Q 146.00 453.64 145.73 452.63   Q 146.51 450.20 146.24 446.25   Q 144.78 425.29 145.03 401.50   Q 145.48 358.12 145.03 314.75   Q 145.03 314.23 145.28 313.96   Q 145.41 313.93 145.54 313.88   A 0.77 0.73 -87.5 0 0 145.98 313.45   C 146.99 310.91 148.89 309.37 150.28 307.15   Q 152.25 303.98 154.23 301.22   C 163.21 288.64 179.93 279.83 195.82 283.31   C 206.74 285.69 214.43 291.37 221.09 300.00   Q 228.38 309.45 233.21 318.70   Q 233.27 318.81 234.02 318.79   Z"/>
</svg>
