<?xml version="1.0" encoding="UTF-8" standalone="no"?>
<!DOCTYPE svg PUBLIC "-//W3C//DTD SVG 1.1//EN" "http://www.w3.org/Graphics/SVG/1.1/DTD/svg11.dtd">
<svg xmlns="http://www.w3.org/2000/svg" version="1.1" viewBox="0.00 0.00 357.00 280.00">
<g stroke-width="2.00" fill="none" stroke-linecap="butt">
<path stroke="#7f272c" vector-effect="non-scaling-stroke" d="
  M 349.44 88.01
  C 341.10 88.50 337.22 85.29 337.26 76.90
  Q 337.37 53.38 337.51 29.88
  C 337.54 24.38 336.58 19.49 330.25 19.48
  Q 253.68 19.32 176.08 19.37"
/>
<path stroke="#7f272c" vector-effect="non-scaling-stroke" d="
  M 349.61 141.64
  Q 337.53 140.92 337.48 151.75
  Q 337.36 178.69 337.45 205.49
  A 0.83 0.82 90.0 0 1 336.63 206.32
  L 176.00 206.00"
/>
<path stroke="#7f272c" vector-effect="non-scaling-stroke" d="
  M 176.28 177.37
  Q 197.24 177.62 218.24 177.57
  C 225.18 177.55 232.79 174.56 235.46 167.66
  C 237.32 162.85 236.22 158.12 230.00 158.22
  Q 220.38 158.37 182.72 158.22
  Q 182.48 158.22 182.29 158.13
  Q 181.85 157.92 182.01 157.77"
/>
<path stroke="#7f272c" vector-effect="non-scaling-stroke" d="
  M 183.55 155.81
  C 199.70 146.74 215.13 136.11 230.35 125.56
  Q 235.62 121.90 235.96 114.74
  C 236.24 109.02 233.05 104.58 228.45 101.56
  Q 207.85 88.04 187.22 74.56
  Q 184.12 72.53 180.54 72.50"
/>
<path stroke="#7f272c" vector-effect="non-scaling-stroke" d="
  M 180.23 71.54
  Q 212.62 71.58 245.00 71.75
  C 248.57 71.77 250.93 72.89 252.70 75.79
  Q 253.90 77.76 253.95 81.97
  Q 254.56 133.03 254.05 155.00
  C 253.96 158.71 250.16 162.50 246.85 165.85
  C 244.20 168.53 243.96 176.72 249.25 177.53
  Q 263.00 179.64 270.19 168.20
  Q 273.93 162.25 273.90 153.00
  Q 273.78 115.93 273.76 78.86
  Q 273.76 72.44 272.73 69.25
  C 270.54 62.42 264.81 56.36 258.12 53.86
  Q 254.41 52.48 246.71 52.49
  Q 211.73 52.51 176.75 52.48
  Q 176.23 52.48 176.11 52.28"
/>
<path stroke="#7f272c" vector-effect="non-scaling-stroke" d="
  M 139.96 71.42
  Q 132.92 71.70 112.49 71.76
  C 105.16 71.78 103.44 76.85 103.45 83.46
  Q 103.47 117.23 103.43 151.00
  Q 103.42 155.40 106.91 157.25
  Q 108.84 158.29 113.26 158.28
  Q 125.52 158.26 137.75 158.25
  Q 139.11 158.25 140.17 157.97"
/>
<path stroke="#7f272c" vector-effect="non-scaling-stroke" d="
  M 140.01 89.51
  C 136.17 83.05 126.16 81.80 122.74 88.44
  Q 121.47 90.92 121.39 97.78
  Q 121.05 128.57 121.28 137.50
  C 121.42 142.89 125.33 147.13 130.84 146.85
  Q 136.00 146.58 140.13 141.80"
/>
</g>
<path fill="#00161e" d="
  M 349.44 88.01
  C 341.10 88.50 337.22 85.29 337.26 76.90
  Q 337.37 53.38 337.51 29.88
  C 337.54 24.38 336.58 19.49 330.25 19.48
  Q 253.68 19.32 176.08 19.37
  Q 69.48 18.93 26.76 19.49
  Q 19.90 19.58 19.93 26.99
  Q 20.03 52.00 19.76 76.99
  C 19.64 88.57 4.38 90.62 1.66 79.74
  Q 1.40 78.66 1.36 72.25
  Q 1.22 47.00 1.25 21.75
  C 1.26 13.13 4.71 6.03 12.72 2.44
  C 17.84 0.14 25.37 0.90 31.25 0.90
  Q 182.47 1.02 333.68 0.85
  Q 340.72 0.85 344.10 2.24
  C 351.23 5.19 356.07 12.16 356.13 20.00
  Q 356.36 48.50 356.27 76.99
  Q 356.25 85.39 349.44 88.01
  Z"
/>
<path fill="#fe3839" d="
  M 349.44 88.01
  L 349.61 141.64
  Q 337.53 140.92 337.48 151.75
  Q 337.36 178.69 337.45 205.49
  A 0.83 0.82 90.0 0 1 336.63 206.32
  L 176.00 206.00
  L 176.28 177.37
  Q 197.24 177.62 218.24 177.57
  C 225.18 177.55 232.79 174.56 235.46 167.66
  C 237.32 162.85 236.22 158.12 230.00 158.22
  Q 220.38 158.37 182.72 158.22
  Q 182.48 158.22 182.29 158.13
  Q 181.85 157.92 182.01 157.77
  Q 182.62 156.66 183.55 155.81
  C 199.70 146.74 215.13 136.11 230.35 125.56
  Q 235.62 121.90 235.96 114.74
  C 236.24 109.02 233.05 104.58 228.45 101.56
  Q 207.85 88.04 187.22 74.56
  Q 184.12 72.53 180.54 72.50
  Q 180.73 71.79 180.23 71.54
  Q 212.62 71.58 245.00 71.75
  C 248.57 71.77 250.93 72.89 252.70 75.79
  Q 253.90 77.76 253.95 81.97
  Q 254.56 133.03 254.05 155.00
  C 253.96 158.71 250.16 162.50 246.85 165.85
  C 244.20 168.53 243.96 176.72 249.25 177.53
  Q 263.00 179.64 270.19 168.20
  Q 273.93 162.25 273.90 153.00
  Q 273.78 115.93 273.76 78.86
  Q 273.76 72.44 272.73 69.25
  C 270.54 62.42 264.81 56.36 258.12 53.86
  Q 254.41 52.48 246.71 52.49
  Q 211.73 52.51 176.75 52.48
  Q 176.23 52.48 176.11 52.28
  Q 175.34 35.82 176.08 19.37
  Q 253.68 19.32 330.25 19.48
  C 336.58 19.49 337.54 24.38 337.51 29.88
  Q 337.37 53.38 337.26 76.90
  C 337.22 85.29 341.10 88.50 349.44 88.01
  Z"
/>
<path fill="#fe3839" d="
  M 46.75 47.76
  C 44.31 47.77 43.60 49.76 43.69 51.88
  Q 44.08 60.66 43.52 71.66
  A 3.34 3.34 0.0 0 1 40.05 74.83
  L 39.08 74.79
  Q 34.96 74.64 34.89 70.52
  Q 34.67 57.15 34.89 46.75
  C 35.01 41.14 39.83 38.56 44.92 38.54
  Q 52.02 38.51 59.12 38.60
  C 66.40 38.69 67.15 47.74 58.66 47.74
  Q 52.71 47.74 46.75 47.76
  Z"
/>
<path fill="#00161e" d="
  M 176.11 52.28
  Q 176.23 52.48 176.75 52.48
  Q 211.73 52.51 246.71 52.49
  Q 254.41 52.48 258.12 53.86
  C 264.81 56.36 270.54 62.42 272.73 69.25
  Q 273.76 72.44 273.76 78.86
  Q 273.78 115.93 273.90 153.00
  Q 273.93 162.25 270.19 168.20
  Q 263.00 179.64 249.25 177.53
  C 243.96 176.72 244.20 168.53 246.85 165.85
  C 250.16 162.50 253.96 158.71 254.05 155.00
  Q 254.56 133.03 253.95 81.97
  Q 253.90 77.76 252.70 75.79
  C 250.93 72.89 248.57 71.77 245.00 71.75
  Q 212.62 71.58 180.23 71.54
  L 139.96 71.42
  Q 132.92 71.70 112.49 71.76
  C 105.16 71.78 103.44 76.85 103.45 83.46
  Q 103.47 117.23 103.43 151.00
  Q 103.42 155.40 106.91 157.25
  Q 108.84 158.29 113.26 158.28
  Q 125.52 158.26 137.75 158.25
  Q 139.11 158.25 140.17 157.97
  Q 140.99 158.43 141.75 158.43
  Q 160.06 158.56 178.38 158.40
  Q 179.25 158.39 182.01 157.77
  Q 181.85 157.92 182.29 158.13
  Q 182.48 158.22 182.72 158.22
  Q 220.38 158.37 230.00 158.22
  C 236.22 158.12 237.32 162.85 235.46 167.66
  C 232.79 174.56 225.18 177.55 218.24 177.57
  Q 197.24 177.62 176.28 177.37
  Q 141.64 177.00 107.00 177.17
  C 97.24 177.21 89.22 171.28 85.85 162.38
  Q 84.43 158.65 84.43 150.94
  Q 84.40 113.09 84.45 75.25
  Q 84.46 71.74 87.28 66.22
  Q 94.30 52.54 110.00 52.72
  Q 142.37 53.08 174.75 52.93
  Q 175.49 52.93 176.11 52.28
  Z"
/>
<path fill="#fe3839" d="
  M 139.96 71.42
  L 140.01 89.51
  C 136.17 83.05 126.16 81.80 122.74 88.44
  Q 121.47 90.92 121.39 97.78
  Q 121.05 128.57 121.28 137.50
  C 121.42 142.89 125.33 147.13 130.84 146.85
  Q 136.00 146.58 140.13 141.80
  L 140.17 157.97
  Q 139.11 158.25 137.75 158.25
  Q 125.52 158.26 113.26 158.28
  Q 108.84 158.29 106.91 157.25
  Q 103.42 155.40 103.43 151.00
  Q 103.47 117.23 103.45 83.46
  C 103.44 76.85 105.16 71.78 112.49 71.76
  Q 132.92 71.70 139.96 71.42
  Z"
/>
<path fill="#00161e" d="
  M 180.54 72.50
  Q 184.12 72.53 187.22 74.56
  Q 207.85 88.04 228.45 101.56
  C 233.05 104.58 236.24 109.02 235.96 114.74
  Q 235.62 121.90 230.35 125.56
  C 215.13 136.11 199.70 146.74 183.55 155.81
  Q 174.43 157.10 172.09 149.70
  C 170.39 144.31 173.52 141.04 177.97 137.99
  C 186.95 131.83 196.02 125.85 205.06 119.41
  Q 207.06 117.98 205.00 116.63
  Q 199.54 113.03 193.66 107.86
  Q 185.73 100.87 177.75 93.95
  C 172.36 89.27 170.17 86.43 172.20 79.48
  Q 173.93 73.59 179.42 73.12
  C 179.96 73.07 180.21 72.87 180.54 72.50
  Z"
/>
<path fill="#00161e" d="
  M 140.01 89.51
  L 140.13 141.80
  Q 136.00 146.58 130.84 146.85
  C 125.33 147.13 121.42 142.89 121.28 137.50
  Q 121.05 128.57 121.39 97.78
  Q 121.47 90.92 122.74 88.44
  C 126.16 81.80 136.17 83.05 140.01 89.51
  Z"
/>
<path fill="#00161e" d="
  M 167.42 131.16
  C 160.61 135.68 154.82 132.24 154.88 124.25
  Q 154.96 115.63 154.98 106.99
  C 154.99 101.24 160.83 97.46 165.88 100.71
  Q 173.31 105.48 180.63 110.40
  C 185.27 113.51 187.52 117.15 181.91 121.16
  Q 174.76 126.28 167.42 131.16
  Z"
/>
<path fill="#00161e" d="
  M 349.61 141.64
  C 355.17 144.39 356.31 147.89 356.32 154.20
  Q 356.42 226.92 356.24 260.25
  C 356.20 269.74 346.82 278.93 337.25 278.91
  Q 179.00 278.66 20.75 278.91
  C 9.78 278.92 1.23 268.57 1.23 257.75
  Q 1.28 205.94 1.28 154.13
  Q 1.28 149.20 2.63 146.73
  C 7.66 137.60 20.04 141.93 19.99 152.20
  Q 19.86 178.81 19.87 205.36
  A 1.14 1.14 0.0 0 0 21.01 206.50
  Q 95.25 206.50 169.50 206.46
  Q 172.78 206.46 176.00 206.00
  L 336.63 206.32
  A 0.83 0.82 90.0 0 0 337.45 205.49
  Q 337.36 178.69 337.48 151.75
  Q 337.53 140.92 349.61 141.64
  Z
  M 21.26 258.77
  Q 22.82 260.47 25.75 260.48
  Q 178.50 260.73 331.25 260.52
  C 336.23 260.52 337.69 257.95 337.71 253.20
  Q 337.78 240.18 337.88 227.80
  A 3.04 3.04 0.0 0 0 334.84 224.74
  Q 180.74 224.73 26.73 224.74
  C 22.02 224.74 19.84 225.73 19.82 230.74
  Q 19.79 242.71 20.07 254.66
  Q 20.14 257.55 21.26 258.77
  Z"
/>
<path fill="#fe3839" d="
  M 64.72 184.73
  A 4.07 4.06 2.8 0 1 60.84 188.24
  Q 52.30 188.55 45.27 188.46
  C 39.19 188.38 35.45 186.34 35.21 179.99
  Q 34.93 172.63 34.94 165.25
  C 34.95 158.53 43.68 157.48 43.72 164.34
  Q 43.75 169.67 43.86 176.15
  A 3.15 3.15 0.0 0 0 47.02 179.24
  L 60.88 179.22
  A 4.01 4.01 0.0 0 1 64.85 183.76
  L 64.72 184.73
  Z"
/>
<rect fill="#fe3839" x="-26.41" y="-8.45" transform="translate(179.28,242.75) rotate(-0.1)" width="52.82" height="16.90" rx="8.15"/>
<circle fill="#00161e" cx="45.38" cy="242.95" r="8.13"/>
<circle fill="#00161e" cx="108.18" cy="242.88" r="8.11"/>
<ellipse fill="#00161e" cx="0.00" cy="0.00" transform="translate(250.73,243.00) rotate(11.6)" rx="8.36" ry="8.16"/>
<circle fill="#00161e" cx="281.82" cy="242.93" r="8.13"/>
<circle fill="#00161e" cx="312.71" cy="243.02" r="8.18"/>
<ellipse fill="#00161e" cx="0.00" cy="0.00" transform="translate(76.74,243.02) rotate(-4.6)" rx="8.33" ry="8.13"/>
</svg>
